# xmcd CD database file
#
# Track frame offsets:
#	150
#	20511
#	41961
#
# Disc length: 827 seconds
#
# Revision: 0
# Processed by: cddbd v1.5.1PL0 Copyright (c) Steve Scherf et al.
# Submitted via: CDex 1.51
#
DISCID=21033903
DTITLE=ゼクシィ - Pa Pa Pa Paaan ?
DYEAR=1900
DGENRE=
TTITLE0=Pa Pa Pa Paaan 1
TTITLE1=Pa Pa Pa Paaan 2
TTITLE2=Pa Pa Pa Paaan 3
EXTD=
EXTT0=
EXTT1=
EXTT2=
PLAYORDER=
